<?xml version="1.0" encoding="UTF-8" standalone="no"?>
<!-- Created with Inkscape (http://www.inkscape.org/) -->

<svg
   xmlns:dc="http://purl.org/dc/elements/1.1/"
   xmlns:cc="http://creativecommons.org/ns#"
   xmlns:rdf="http://www.w3.org/1999/02/22-rdf-syntax-ns#"
   xmlns:svg="http://www.w3.org/2000/svg"
   xmlns="http://www.w3.org/2000/svg"
   xmlns:sodipodi="http://sodipodi.sourceforge.net/DTD/sodipodi-0.dtd"
   xmlns:inkscape="http://www.inkscape.org/namespaces/inkscape"
   width="210mm"
   height="297mm"
   id="svg2"
   version="1.1"
   inkscape:version="0.48.4 r9939"
   sodipodi:docname="morse_baum.svg">
  <defs
     id="defs4" />
  <sodipodi:namedview
     id="base"
     pagecolor="#ffffff"
     bordercolor="#666666"
     borderopacity="1.0"
     inkscape:pageopacity="0.0"
     inkscape:pageshadow="2"
     inkscape:zoom="1.979899"
     inkscape:cx="346.35768"
     inkscape:cy="833.05258"
     inkscape:document-units="px"
     inkscape:current-layer="layer1"
     showgrid="false"
     inkscape:window-width="1920"
     inkscape:window-height="1135"
     inkscape:window-x="-2"
     inkscape:window-y="-3"
     inkscape:window-maximized="1"
     showguides="true"
     inkscape:guide-bbox="true" />
  <metadata
     id="metadata7">
    <rdf:RDF>
      <cc:Work
         rdf:about="">
        <dc:format>image/svg+xml</dc:format>
        <dc:type
           rdf:resource="http://purl.org/dc/dcmitype/StillImage" />
        <dc:title />
      </cc:Work>
    </rdf:RDF>
  </metadata>
  <g
     inkscape:label="Ebene 1"
     inkscape:groupmode="layer"
     id="layer1">
    <rect
       style="fill:none;stroke:#000000;stroke-width:0.97828037;stroke-linecap:butt;stroke-linejoin:round;stroke-miterlimit:4;stroke-opacity:1;stroke-dasharray:none;stroke-dashoffset:0"
       id="rect4094"
       width="456.64124"
       height="360"
       x="78.822258"
       y="50.840633"
       inkscape:export-filename="/home/orakeldel/Sonstiges/phonegap/scoutdroid/imgs/morse/baum.png"
       inkscape:export-xdpi="118.25476"
       inkscape:export-ydpi="118.25476"
       ry="27.857136" />
    <path
       style="font-size:medium;font-style:normal;font-variant:normal;font-weight:normal;font-stretch:normal;text-indent:0;text-align:start;text-decoration:none;line-height:normal;letter-spacing:normal;word-spacing:normal;text-transform:none;direction:ltr;block-progression:tb;writing-mode:lr-tb;text-anchor:start;baseline-shift:baseline;color:#000000;fill:#000000;fill-opacity:1;stroke:none;stroke-width:2;marker:none;visibility:visible;display:inline;overflow:visible;enable-background:accumulate;font-family:Sans;-inkscape-font-specification:Sans"
       d="M 276.15625 132 L 276.15625 134 L 278.15625 134 L 278.15625 132 L 276.15625 132 z M 336.15625 132 L 336.15625 134 L 338.15625 134 L 338.15625 132 L 336.15625 132 z M 276.15625 136 L 276.15625 138 L 278.15625 138 L 278.15625 136 L 276.15625 136 z M 336.15625 136 L 336.15625 138 L 338.15625 138 L 338.15625 136 L 336.15625 136 z M 276.15625 140 L 276.15625 142 L 278.15625 142 L 278.15625 140 L 276.15625 140 z M 336.15625 140 L 336.15625 142 L 338.15625 142 L 338.15625 140 L 336.15625 140 z M 276.15625 144 L 276.15625 146 L 278.15625 146 L 278.15625 144 L 276.15625 144 z M 336.15625 144 L 336.15625 146 L 338.15625 146 L 338.15625 144 L 336.15625 144 z M 111.15625 146.0625 L 111.15625 148.0625 L 113.15625 148.0625 L 113.15625 146.0625 L 111.15625 146.0625 z M 115.15625 146.0625 L 115.15625 148.0625 L 117.15625 148.0625 L 117.15625 146.0625 L 115.15625 146.0625 z M 119.15625 146.0625 L 119.15625 148.0625 L 121.15625 148.0625 L 121.15625 146.0625 L 119.15625 146.0625 z M 123.15625 146.0625 L 123.15625 148.0625 L 125.15625 148.0625 L 125.15625 146.0625 L 123.15625 146.0625 z M 127.15625 146.0625 L 127.15625 148.0625 L 129.15625 148.0625 L 129.15625 146.0625 L 127.15625 146.0625 z M 131.15625 146.0625 L 131.15625 148.0625 L 133.15625 148.0625 L 133.15625 146.0625 L 131.15625 146.0625 z M 135.15625 146.0625 L 135.15625 148.0625 L 137.15625 148.0625 L 137.15625 146.0625 L 135.15625 146.0625 z M 139.15625 146.0625 L 139.15625 148.0625 L 141.15625 148.0625 L 141.15625 146.0625 L 139.15625 146.0625 z M 143.15625 146.0625 L 143.15625 148.0625 L 144.5625 148.0625 L 144.5625 146.0625 L 143.15625 146.0625 z M 171.15625 146.0625 L 171.15625 148.0625 L 173.15625 148.0625 L 173.15625 146.0625 L 171.15625 146.0625 z M 175.15625 146.0625 L 175.15625 148.0625 L 177.15625 148.0625 L 177.15625 146.0625 L 175.15625 146.0625 z M 179.15625 146.0625 L 179.15625 148.0625 L 181.15625 148.0625 L 181.15625 146.0625 L 179.15625 146.0625 z M 183.15625 146.0625 L 183.15625 148.0625 L 185.15625 148.0625 L 185.15625 146.0625 L 183.15625 146.0625 z M 187.15625 146.0625 L 187.15625 148.0625 L 189.15625 148.0625 L 189.15625 146.0625 L 187.15625 146.0625 z M 191.15625 146.0625 L 191.15625 148.0625 L 193.15625 148.0625 L 193.15625 146.0625 L 191.15625 146.0625 z M 195.15625 146.0625 L 195.15625 148.0625 L 197.15625 148.0625 L 197.15625 146.0625 L 195.15625 146.0625 z M 199.15625 146.0625 L 199.15625 148.0625 L 201.15625 148.0625 L 201.15625 146.0625 L 199.15625 146.0625 z M 203.15625 146.0625 L 203.15625 148.0625 L 204.5625 148.0625 L 204.5625 146.0625 L 203.15625 146.0625 z M 231.15625 146.0625 L 231.15625 148.0625 L 233.15625 148.0625 L 233.15625 146.0625 L 231.15625 146.0625 z M 235.15625 146.0625 L 235.15625 148.0625 L 237.15625 148.0625 L 237.15625 146.0625 L 235.15625 146.0625 z M 239.15625 146.0625 L 239.15625 148.0625 L 241.15625 148.0625 L 241.15625 146.0625 L 239.15625 146.0625 z M 243.15625 146.0625 L 243.15625 148.0625 L 245.15625 148.0625 L 245.15625 146.0625 L 243.15625 146.0625 z M 247.15625 146.0625 L 247.15625 148.0625 L 249.15625 148.0625 L 249.15625 146.0625 L 247.15625 146.0625 z M 251.15625 146.0625 L 251.15625 148.0625 L 253.15625 148.0625 L 253.15625 146.0625 L 251.15625 146.0625 z M 255.15625 146.0625 L 255.15625 148.0625 L 257.15625 148.0625 L 257.15625 146.0625 L 255.15625 146.0625 z M 259.15625 146.0625 L 259.15625 148.0625 L 261.15625 148.0625 L 261.15625 146.0625 L 259.15625 146.0625 z M 263.15625 146.0625 L 263.15625 148.0625 L 265.15625 148.0625 L 265.15625 146.0625 L 263.15625 146.0625 z M 267.15625 146.0625 L 267.15625 148.0625 L 269.15625 148.0625 L 269.15625 146.0625 L 267.15625 146.0625 z M 271.15625 146.0625 L 271.15625 148.0625 L 273.15625 148.0625 L 273.15625 146.0625 L 271.15625 146.0625 z M 275.15625 146.0625 L 275.15625 148.0625 L 276.15625 148.0625 L 276.15625 150 L 278.15625 150 L 278.15625 148 L 277.15625 148 L 277.15625 146.0625 L 275.15625 146.0625 z M 335.0625 146.0625 L 335.0625 148.0625 L 336.15625 148.0625 L 336.15625 150 L 338.15625 150 L 338.15625 148 L 337.0625 148 L 337.0625 146.0625 L 335.0625 146.0625 z M 339.0625 146.0625 L 339.0625 148.0625 L 341.0625 148.0625 L 341.0625 146.0625 L 339.0625 146.0625 z M 343.0625 146.0625 L 343.0625 148.0625 L 345.0625 148.0625 L 345.0625 146.0625 L 343.0625 146.0625 z M 347.0625 146.0625 L 347.0625 148.0625 L 349.0625 148.0625 L 349.0625 146.0625 L 347.0625 146.0625 z M 351.0625 146.0625 L 351.0625 148.0625 L 353.0625 148.0625 L 353.0625 146.0625 L 351.0625 146.0625 z M 355.0625 146.0625 L 355.0625 148.0625 L 357.0625 148.0625 L 357.0625 146.0625 L 355.0625 146.0625 z M 359.0625 146.0625 L 359.0625 148.0625 L 361.0625 148.0625 L 361.0625 146.0625 L 359.0625 146.0625 z M 363.0625 146.0625 L 363.0625 148.0625 L 365.0625 148.0625 L 365.0625 146.0625 L 363.0625 146.0625 z M 367.0625 146.0625 L 367.0625 148.0625 L 369.0625 148.0625 L 369.0625 146.0625 L 367.0625 146.0625 z M 371.0625 146.0625 L 371.0625 148.0625 L 373.0625 148.0625 L 373.0625 146.0625 L 371.0625 146.0625 z M 375.0625 146.0625 L 375.0625 148.0625 L 377.0625 148.0625 L 377.0625 146.0625 L 375.0625 146.0625 z M 379.0625 146.0625 L 379.0625 148.0625 L 381.0625 148.0625 L 381.0625 146.0625 L 379.0625 146.0625 z M 383.0625 146.0625 L 383.0625 148.0625 L 384.5625 148.0625 L 384.5625 146.0625 L 383.0625 146.0625 z M 411.0625 146.0625 L 411.0625 148.0625 L 413.0625 148.0625 L 413.0625 146.0625 L 411.0625 146.0625 z M 415.0625 146.0625 L 415.0625 148.0625 L 417.0625 148.0625 L 417.0625 146.0625 L 415.0625 146.0625 z M 419.0625 146.0625 L 419.0625 148.0625 L 421.0625 148.0625 L 421.0625 146.0625 L 419.0625 146.0625 z M 423.0625 146.0625 L 423.0625 148.0625 L 425.0625 148.0625 L 425.0625 146.0625 L 423.0625 146.0625 z M 427.0625 146.0625 L 427.0625 148.0625 L 429.0625 148.0625 L 429.0625 146.0625 L 427.0625 146.0625 z M 431.0625 146.0625 L 431.0625 148.0625 L 433.0625 148.0625 L 433.0625 146.0625 L 431.0625 146.0625 z M 435.0625 146.0625 L 435.0625 148.0625 L 437.0625 148.0625 L 437.0625 146.0625 L 435.0625 146.0625 z M 439.0625 146.0625 L 439.0625 148.0625 L 441.0625 148.0625 L 441.0625 146.0625 L 439.0625 146.0625 z M 443.0625 146.0625 L 443.0625 148.0625 L 444.5625 148.0625 L 444.5625 146.0625 L 443.0625 146.0625 z M 471.0625 146.0625 L 471.0625 148.0625 L 473.0625 148.0625 L 473.0625 146.0625 L 471.0625 146.0625 z M 475.0625 146.0625 L 475.0625 148.0625 L 477.0625 148.0625 L 477.0625 146.0625 L 475.0625 146.0625 z M 479.0625 146.0625 L 479.0625 148.0625 L 481.0625 148.0625 L 481.0625 146.0625 L 479.0625 146.0625 z M 483.0625 146.0625 L 483.0625 148.0625 L 485.0625 148.0625 L 485.0625 146.0625 L 483.0625 146.0625 z M 487.0625 146.0625 L 487.0625 148.0625 L 489.0625 148.0625 L 489.0625 146.0625 L 487.0625 146.0625 z M 491.0625 146.0625 L 491.0625 148.0625 L 493.0625 148.0625 L 493.0625 146.0625 L 491.0625 146.0625 z M 495.0625 146.0625 L 495.0625 148.0625 L 497.0625 148.0625 L 497.0625 146.0625 L 495.0625 146.0625 z M 499.0625 146.0625 L 499.0625 148.0625 L 501.0625 148.0625 L 501.0625 146.0625 L 499.0625 146.0625 z M 503.0625 146.0625 L 503.0625 148.0625 L 504.5625 148.0625 L 504.5625 146.0625 L 503.0625 146.0625 z M 276.15625 152 L 276.15625 154 L 278.15625 154 L 278.15625 152 L 276.15625 152 z M 336.15625 152 L 336.15625 154 L 338.15625 154 L 338.15625 152 L 336.15625 152 z M 400.71875 153.4375 L 401.03125 153.6875 L 401.25 153.4375 L 400.71875 153.4375 z M 403.84375 153.4375 L 402.59375 154.96875 L 404.125 156.21875 L 405.40625 154.6875 L 403.90625 153.4375 L 403.84375 153.4375 z M 406.9375 155.9375 L 405.6875 157.5 L 407.21875 158.75 L 408.5 157.21875 L 406.9375 155.9375 z M 276.15625 156 L 276.15625 158 L 278.15625 158 L 278.15625 156 L 276.15625 156 z M 336.15625 156 L 336.15625 158 L 338.15625 158 L 338.15625 156 L 336.15625 156 z M 204.5625 156.5 L 203.71875 157.21875 L 204.5625 158.25 L 204.5625 156.5 z M 202.15625 158.5 L 200.625 159.75 L 201.875 161.3125 L 203.4375 160.03125 L 202.15625 158.5 z M 410.03125 158.5 L 408.78125 160.03125 L 410.3125 161.3125 L 411.59375 159.75 L 410.03125 158.5 z M 276.15625 160 L 276.15625 162 L 278.15625 162 L 278.15625 160 L 276.15625 160 z M 336.15625 160 L 336.15625 162 L 338.15625 162 L 338.15625 160 L 336.15625 160 z M 199.0625 161.03125 L 197.53125 162.28125 L 198.78125 163.84375 L 200.34375 162.5625 L 199.0625 161.03125 z M 413.125 161.03125 L 411.875 162.5625 L 413.40625 163.84375 L 414.6875 162.28125 L 413.125 161.03125 z M 195.96875 163.5625 L 194.4375 164.8125 L 195.71875 166.375 L 197.25 165.09375 L 195.96875 163.5625 z M 416.21875 163.5625 L 414.96875 165.09375 L 416.5 166.375 L 417.78125 164.8125 L 416.21875 163.5625 z M 276.15625 164 L 276.15625 166 L 278.15625 166 L 278.15625 164 L 276.15625 164 z M 336.15625 164 L 336.15625 166 L 338.15625 166 L 338.15625 164 L 336.15625 164 z M 192.875 166.09375 L 191.34375 167.375 L 192.625 168.90625 L 194.15625 167.65625 L 192.875 166.09375 z M 419.3125 166.09375 L 418.0625 167.65625 L 419.59375 168.90625 L 420.875 167.375 L 419.3125 166.09375 z M 276.15625 168 L 276.15625 170 L 278.15625 170 L 278.15625 168 L 276.15625 168 z M 336.15625 168 L 336.15625 170 L 338.15625 170 L 338.15625 168 L 336.15625 168 z M 189.78125 168.625 L 188.25 169.90625 L 189.53125 171.4375 L 191.0625 170.1875 L 189.78125 168.625 z M 422.40625 168.625 L 421.15625 170.1875 L 422.6875 171.4375 L 423.96875 169.90625 L 422.40625 168.625 z M 186.6875 171.15625 L 185.15625 172.4375 L 186.4375 173.96875 L 187.96875 172.71875 L 186.6875 171.15625 z M 425.5 171.15625 L 424.25 172.71875 L 425.78125 173.96875 L 427.0625 172.4375 L 425.5 171.15625 z M 276.15625 172 L 276.15625 174 L 278.15625 174 L 278.15625 172 L 276.15625 172 z M 336.15625 172 L 336.15625 174 L 338.15625 174 L 338.15625 172 L 336.15625 172 z M 183.625 173.71875 L 182.0625 174.96875 L 183.34375 176.53125 L 184.875 175.25 L 183.625 173.71875 z M 428.59375 173.71875 L 427.34375 175.25 L 428.875 176.53125 L 430.15625 174.96875 L 428.59375 173.71875 z M 276.15625 176 L 276.15625 178 L 278.15625 178 L 278.15625 176 L 276.15625 176 z M 336.15625 176 L 336.15625 178 L 338.15625 178 L 338.15625 176 L 336.15625 176 z M 180.53125 176.25 L 178.96875 177.5 L 180.25 179.0625 L 181.78125 177.78125 L 180.53125 176.25 z M 431.6875 176.25 L 430.4375 177.78125 L 431.96875 179.0625 L 433.25 177.5 L 431.6875 176.25 z M 177.4375 178.78125 L 175.875 180.0625 L 177.15625 181.59375 L 178.6875 180.3125 L 177.4375 178.78125 z M 434.78125 178.78125 L 433.53125 180.3125 L 435.0625 181.59375 L 436.34375 180.0625 L 434.78125 178.78125 z M 276.15625 180 L 276.15625 182 L 278.15625 182 L 278.15625 180 L 276.15625 180 z M 336.15625 180 L 336.15625 182 L 338.15625 182 L 338.15625 180 L 336.15625 180 z M 174.34375 181.3125 L 172.78125 182.59375 L 174.0625 184.125 L 175.59375 182.875 L 174.34375 181.3125 z M 437.875 181.3125 L 436.625 182.875 L 438.15625 184.125 L 439.4375 182.59375 L 437.875 181.3125 z M 171.25 183.84375 L 169.71875 185.09375 L 169.71875 185.15625 L 170.96875 186.65625 L 172.5 185.40625 L 171.25 183.84375 z M 440.96875 183.84375 L 439.71875 185.40625 L 441.25 186.65625 L 442.53125 185.125 L 440.96875 183.84375 z M 276.15625 184 L 276.15625 186 L 278.15625 186 L 278.15625 184 L 276.15625 184 z M 336.15625 184 L 336.15625 186 L 338.15625 186 L 338.15625 184 L 336.15625 184 z M 444.0625 186.375 L 442.8125 187.9375 L 444.34375 189.1875 L 444.5625 188.9375 L 444.5625 186.78125 L 444.0625 186.375 z M 276.15625 188 L 276.15625 189.6875 L 278.15625 189.6875 L 278.15625 188 L 276.15625 188 z M 336.15625 188 L 336.15625 189.6875 L 338.15625 189.6875 L 338.15625 188 L 336.15625 188 z M 111.15625 196.0625 L 111.15625 198.0625 L 113.15625 198.0625 L 113.15625 196.0625 L 111.15625 196.0625 z M 115.15625 196.0625 L 115.15625 198.0625 L 117.15625 198.0625 L 117.15625 196.0625 L 115.15625 196.0625 z M 119.15625 196.0625 L 119.15625 198.0625 L 121.15625 198.0625 L 121.15625 196.0625 L 119.15625 196.0625 z M 123.15625 196.0625 L 123.15625 198.0625 L 125.15625 198.0625 L 125.15625 196.0625 L 123.15625 196.0625 z M 127.15625 196.0625 L 127.15625 198.0625 L 129.15625 198.0625 L 129.15625 196.0625 L 127.15625 196.0625 z M 131.15625 196.0625 L 131.15625 198.0625 L 133.15625 198.0625 L 133.15625 196.0625 L 131.15625 196.0625 z M 135.15625 196.0625 L 135.15625 198.0625 L 137.15625 198.0625 L 137.15625 196.0625 L 135.15625 196.0625 z M 139.15625 196.0625 L 139.15625 198.0625 L 141.15625 198.0625 L 141.15625 196.0625 L 139.15625 196.0625 z M 143.15625 196.0625 L 143.15625 198.0625 L 144.5625 198.0625 L 144.5625 196.0625 L 143.15625 196.0625 z M 471.0625 196.0625 L 471.0625 198.0625 L 473.0625 198.0625 L 473.0625 196.0625 L 471.0625 196.0625 z M 475.0625 196.0625 L 475.0625 198.0625 L 477.0625 198.0625 L 477.0625 196.0625 L 475.0625 196.0625 z M 479.0625 196.0625 L 479.0625 198.0625 L 481.0625 198.0625 L 481.0625 196.0625 L 479.0625 196.0625 z M 483.0625 196.0625 L 483.0625 198.0625 L 485.0625 198.0625 L 485.0625 196.0625 L 483.0625 196.0625 z M 487.0625 196.0625 L 487.0625 198.0625 L 489.0625 198.0625 L 489.0625 196.0625 L 487.0625 196.0625 z M 491.0625 196.0625 L 491.0625 198.0625 L 493.0625 198.0625 L 493.0625 196.0625 L 491.0625 196.0625 z M 495.0625 196.0625 L 495.0625 198.0625 L 497.0625 198.0625 L 497.0625 196.0625 L 495.0625 196.0625 z M 499.0625 196.0625 L 499.0625 198.0625 L 501.0625 198.0625 L 501.0625 196.0625 L 499.0625 196.0625 z M 503.0625 196.0625 L 503.0625 198.0625 L 504.5625 198.0625 L 504.5625 196.0625 L 503.0625 196.0625 z M 148.5 203.4375 L 149.3125 204.4375 L 150.5 203.4375 L 148.5 203.4375 z M 146.5 204.15625 L 144.9375 205.40625 L 146.21875 206.96875 L 147.75 205.6875 L 146.5 204.15625 z M 143.40625 206.6875 L 141.84375 207.9375 L 143.125 209.5 L 144.65625 208.21875 L 143.40625 206.6875 z M 469.71875 207.4375 L 469.71875 208.71875 L 470.34375 207.9375 L 469.71875 207.4375 z M 140.3125 209.21875 L 138.75 210.5 L 140.03125 212.03125 L 141.5625 210.75 L 140.3125 209.21875 z M 471.90625 209.21875 L 470.625 210.75 L 472.1875 212.03125 L 473.4375 210.5 L 471.90625 209.21875 z M 137.21875 211.75 L 135.65625 213.03125 L 136.9375 214.5625 L 138.5 213.3125 L 137.21875 211.75 z M 475 211.75 L 473.71875 213.3125 L 475.28125 214.5625 L 476.53125 213.03125 L 475 211.75 z M 134.125 214.28125 L 132.5625 215.5625 L 133.84375 217.09375 L 135.40625 215.84375 L 134.125 214.28125 z M 478.09375 214.28125 L 476.8125 215.84375 L 478.375 217.09375 L 479.625 215.5625 L 478.09375 214.28125 z M 131.03125 216.8125 L 129.5 218.09375 L 130.75 219.65625 L 132.3125 218.375 L 131.03125 216.8125 z M 481.1875 216.8125 L 479.90625 218.375 L 481.46875 219.65625 L 482.71875 218.09375 L 481.1875 216.8125 z M 127.9375 219.375 L 126.40625 220.625 L 127.65625 222.1875 L 129.21875 220.90625 L 127.9375 219.375 z M 484.28125 219.375 L 483 220.90625 L 484.5625 222.1875 L 485.8125 220.625 L 484.28125 219.375 z M 124.84375 221.90625 L 123.3125 223.15625 L 124.5625 224.71875 L 126.125 223.4375 L 124.84375 221.90625 z M 487.375 221.90625 L 486.09375 223.4375 L 487.65625 224.71875 L 488.90625 223.15625 L 487.375 221.90625 z M 121.75 224.4375 L 120.21875 225.71875 L 121.46875 227.25 L 123.03125 225.96875 L 121.75 224.4375 z M 490.46875 224.4375 L 489.1875 225.96875 L 490.75 227.25 L 492 225.71875 L 490.46875 224.4375 z M 118.65625 226.96875 L 117.125 228.25 L 118.375 229.78125 L 119.9375 228.53125 L 118.65625 226.96875 z M 493.5625 226.96875 L 492.28125 228.53125 L 493.84375 229.78125 L 495.09375 228.25 L 493.5625 226.96875 z M 115.5625 229.5 L 114.03125 230.78125 L 115.28125 232.3125 L 116.84375 231.0625 L 115.5625 229.5 z M 496.65625 229.5 L 495.375 231.0625 L 496.9375 232.3125 L 498.1875 230.78125 L 496.65625 229.5 z M 112.46875 232.03125 L 110.9375 233.3125 L 112.1875 234.875 L 113.75 233.59375 L 112.46875 232.03125 z M 264.5625 232.03125 L 263.6875 232.46875 L 264.5625 234.28125 L 266.3125 233.4375 L 264.5625 233.4375 L 264.5625 232.03125 z M 499.75 232.03125 L 498.46875 233.59375 L 500.03125 234.875 L 501.28125 233.3125 L 499.75 232.03125 z M 261.875 233.34375 L 260.09375 234.21875 L 260.96875 236.03125 L 262.75 235.15625 L 261.875 233.34375 z M 351.3125 233.34375 L 350.4375 235.15625 L 352.25 236.03125 L 353.125 234.21875 L 351.3125 233.34375 z M 276.15625 233.4375 L 276.15625 234 L 278.15625 234 L 278.15625 233.4375 L 276.15625 233.4375 z M 502.84375 234.59375 L 501.5625 236.125 L 503.125 237.40625 L 504.375 235.84375 L 502.84375 234.59375 z M 109.71875 235 L 109.71875 236.90625 L 110.65625 236.125 L 109.71875 235 z M 258.28125 235.09375 L 256.5 235.96875 L 257.375 237.78125 L 259.15625 236.90625 L 258.28125 235.09375 z M 354.90625 235.09375 L 354.03125 236.90625 L 355.84375 237.78125 L 356.71875 235.96875 L 354.90625 235.09375 z M 276.15625 236 L 276.15625 238 L 278.15625 238 L 278.15625 236 L 276.15625 236 z M 254.6875 236.84375 L 252.90625 237.71875 L 253.78125 239.53125 L 255.5625 238.65625 L 254.6875 236.84375 z M 358.53125 236.84375 L 357.65625 238.65625 L 359.4375 239.53125 L 360.3125 237.71875 L 358.53125 236.84375 z M 251.09375 238.59375 L 249.3125 239.46875 L 250.1875 241.28125 L 251.96875 240.40625 L 251.09375 238.59375 z M 362.125 238.59375 L 361.25 240.40625 L 363.03125 241.28125 L 363.90625 239.46875 L 362.125 238.59375 z M 276.15625 240 L 276.15625 242 L 278.15625 242 L 278.15625 240 L 276.15625 240 z M 336.15625 240 L 336.15625 242 L 338.15625 242 L 338.15625 240 L 336.15625 240 z M 247.5 240.34375 L 245.6875 241.21875 L 246.5625 243.03125 L 248.375 242.15625 L 247.5 240.34375 z M 365.71875 240.34375 L 364.84375 242.15625 L 366.625 243.03125 L 367.5 241.21875 L 365.71875 240.34375 z M 243.90625 242.09375 L 242.09375 242.96875 L 242.96875 244.78125 L 244.78125 243.90625 L 243.90625 242.09375 z M 369.3125 242.09375 L 368.4375 243.90625 L 370.21875 244.78125 L 371.09375 242.96875 L 369.3125 242.09375 z M 240.3125 243.84375 L 238.5 244.71875 L 239.375 246.53125 L 241.1875 245.65625 L 240.3125 243.84375 z M 372.90625 243.84375 L 372.03125 245.65625 L 373.84375 246.53125 L 374.71875 244.71875 L 372.90625 243.84375 z M 276.15625 244 L 276.15625 246 L 278.15625 246 L 278.15625 244 L 276.15625 244 z M 336.15625 244 L 336.15625 246 L 338.15625 246 L 338.15625 244 L 336.15625 244 z M 236.71875 245.59375 L 234.90625 246.46875 L 235.78125 248.28125 L 237.59375 247.40625 L 236.71875 245.59375 z M 376.5 245.59375 L 375.625 247.40625 L 377.4375 248.28125 L 378.3125 246.46875 L 376.5 245.59375 z M 233.125 247.34375 L 231.3125 248.21875 L 232.1875 250.03125 L 234 249.15625 L 233.125 247.34375 z M 380.09375 247.34375 L 379.21875 249.15625 L 381.03125 250.03125 L 381.90625 248.21875 L 380.09375 247.34375 z M 276.15625 248 L 276.15625 250 L 278.15625 250 L 278.15625 248 L 276.15625 248 z M 336.15625 248 L 336.15625 250 L 338.15625 250 L 338.15625 248 L 336.15625 248 z M 383.6875 249.09375 L 382.8125 250.90625 L 384.5625 251.75 L 384.5625 249.53125 L 383.6875 249.09375 z M 229.71875 249.5 L 229.71875 251.21875 L 230.375 250.90625 L 229.71875 249.5 z M 276.15625 252 L 276.15625 254 L 278.15625 254 L 278.15625 252 L 276.15625 252 z M 336.15625 252 L 336.15625 254 L 338.15625 254 L 338.15625 252 L 336.15625 252 z M 276.15625 256 L 276.15625 258 L 278.15625 258 L 278.15625 256 L 276.15625 256 z M 336.15625 256 L 336.15625 258 L 338.15625 258 L 338.15625 256 L 336.15625 256 z M 171.15625 256.0625 L 171.15625 258.0625 L 173.15625 258.0625 L 173.15625 256.0625 L 171.15625 256.0625 z M 175.15625 256.0625 L 175.15625 258.0625 L 177.15625 258.0625 L 177.15625 256.0625 L 175.15625 256.0625 z M 179.15625 256.0625 L 179.15625 258.0625 L 181.15625 258.0625 L 181.15625 256.0625 L 179.15625 256.0625 z M 183.15625 256.0625 L 183.15625 258.0625 L 185.15625 258.0625 L 185.15625 256.0625 L 183.15625 256.0625 z M 187.15625 256.0625 L 187.15625 258.0625 L 189.15625 258.0625 L 189.15625 256.0625 L 187.15625 256.0625 z M 191.15625 256.0625 L 191.15625 258.0625 L 193.15625 258.0625 L 193.15625 256.0625 L 191.15625 256.0625 z M 195.15625 256.0625 L 195.15625 258.0625 L 197.15625 258.0625 L 197.15625 256.0625 L 195.15625 256.0625 z M 199.15625 256.0625 L 199.15625 258.0625 L 201.15625 258.0625 L 201.15625 256.0625 L 199.15625 256.0625 z M 203.15625 256.0625 L 203.15625 258.0625 L 204.5625 258.0625 L 204.5625 256.0625 L 203.15625 256.0625 z M 409.71875 256.0625 L 409.71875 258.0625 L 410.0625 258.0625 L 410.0625 256.0625 L 409.71875 256.0625 z M 412.0625 256.0625 L 412.0625 258.0625 L 414.0625 258.0625 L 414.0625 256.0625 L 412.0625 256.0625 z M 416.0625 256.0625 L 416.0625 258.0625 L 418.0625 258.0625 L 418.0625 256.0625 L 416.0625 256.0625 z M 420.0625 256.0625 L 420.0625 258.0625 L 422.0625 258.0625 L 422.0625 256.0625 L 420.0625 256.0625 z M 424.0625 256.0625 L 424.0625 258.0625 L 426.0625 258.0625 L 426.0625 256.0625 L 424.0625 256.0625 z M 428.0625 256.0625 L 428.0625 258.0625 L 430.0625 258.0625 L 430.0625 256.0625 L 428.0625 256.0625 z M 432.0625 256.0625 L 432.0625 258.0625 L 434.0625 258.0625 L 434.0625 256.0625 L 432.0625 256.0625 z M 436.0625 256.0625 L 436.0625 258.0625 L 438.0625 258.0625 L 438.0625 256.0625 L 436.0625 256.0625 z M 440.0625 256.0625 L 440.0625 258.0625 L 442.0625 258.0625 L 442.0625 256.0625 L 440.0625 256.0625 z M 444.0625 256.0625 L 444.0625 258.0625 L 444.5625 258.0625 L 444.5625 256.0625 L 444.0625 256.0625 z M 276.15625 260 L 276.15625 262 L 278.15625 262 L 278.15625 260 L 276.15625 260 z M 336.15625 260 L 336.15625 262 L 338.15625 262 L 338.15625 260 L 336.15625 260 z M 405.375 263.4375 L 404.375 264.625 L 405.90625 265.90625 L 407.1875 264.375 L 406.0625 263.4375 L 405.375 263.4375 z M 276.15625 264 L 276.15625 266 L 278.15625 266 L 278.15625 264 L 276.15625 264 z M 336.15625 264 L 336.15625 266 L 338.15625 266 L 338.15625 264 L 336.15625 264 z M 204.5 265.65625 L 202.96875 266.9375 L 204.25 268.46875 L 204.5625 268.21875 L 204.5625 265.71875 L 204.5 265.65625 z M 408.71875 265.65625 L 407.4375 267.1875 L 408.96875 268.46875 L 410.25 266.9375 L 408.71875 265.65625 z M 276.15625 268 L 276.15625 269.6875 L 278.15625 269.6875 L 278.15625 268 L 276.15625 268 z M 336.15625 268 L 336.15625 269.6875 L 338.15625 269.6875 L 338.15625 268 L 336.15625 268 z M 201.40625 268.21875 L 199.875 269.5 L 201.15625 271.03125 L 202.6875 269.75 L 201.40625 268.21875 z M 411.78125 268.21875 L 410.53125 269.75 L 412.0625 271.03125 L 413.34375 269.5 L 411.78125 268.21875 z M 198.34375 270.78125 L 196.8125 272.0625 L 198.09375 273.59375 L 199.625 272.3125 L 198.34375 270.78125 z M 414.875 270.78125 L 413.59375 272.3125 L 415.125 273.59375 L 416.40625 272.0625 L 414.875 270.78125 z M 195.28125 273.3125 L 193.71875 274.59375 L 195 276.15625 L 196.5625 274.875 L 195.28125 273.3125 z M 417.9375 273.3125 L 416.65625 274.875 L 418.1875 276.15625 L 419.46875 274.59375 L 417.9375 273.3125 z M 192.1875 275.875 L 190.65625 277.15625 L 191.9375 278.6875 L 193.46875 277.4375 L 192.1875 275.875 z M 421.03125 275.875 L 419.75 277.4375 L 421.28125 278.6875 L 422.5625 277.15625 L 421.03125 275.875 z M 189.125 278.4375 L 187.59375 279.71875 L 188.875 281.25 L 190.40625 279.96875 L 189.125 278.4375 z M 424.09375 278.4375 L 422.8125 279.96875 L 424.34375 281.25 L 425.625 279.71875 L 424.09375 278.4375 z M 186.03125 281 L 184.5 282.28125 L 185.78125 283.8125 L 187.3125 282.53125 L 186.03125 281 z M 427.15625 281 L 425.875 282.53125 L 427.4375 283.8125 L 428.71875 282.28125 L 427.15625 281 z M 182.96875 283.5625 L 181.4375 284.84375 L 182.71875 286.375 L 184.25 285.09375 L 182.96875 283.5625 z M 430.25 283.5625 L 428.96875 285.09375 L 430.5 286.375 L 431.78125 284.84375 L 430.25 283.5625 z M 179.90625 286.125 L 178.375 287.40625 L 179.625 288.9375 L 181.1875 287.65625 L 179.90625 286.125 z M 433.3125 286.125 L 432.03125 287.65625 L 433.5625 288.9375 L 434.84375 287.40625 L 433.3125 286.125 z M 176.8125 288.6875 L 175.28125 289.96875 L 176.5625 291.5 L 178.09375 290.21875 L 176.8125 288.6875 z M 436.40625 288.6875 L 435.125 290.21875 L 436.65625 291.5 L 437.9375 289.96875 L 436.40625 288.6875 z M 173.75 291.25 L 172.21875 292.53125 L 173.5 294.0625 L 175.03125 292.78125 L 173.75 291.25 z M 439.46875 291.25 L 438.1875 292.78125 L 439.71875 294.0625 L 441 292.53125 L 439.46875 291.25 z M 170.6875 293.8125 L 169.71875 294.59375 L 169.71875 295.78125 L 170.40625 296.625 L 171.96875 295.34375 L 170.6875 293.8125 z M 442.53125 293.8125 L 441.25 295.34375 L 442.8125 296.625 L 444.0625 295.0625 L 442.53125 293.8125 z M 444.5625 297.625 L 444.34375 297.90625 L 444.5625 298.09375 L 444.5625 297.625 z M 264.5625 312.03125 L 263.6875 312.46875 L 264.5625 314.28125 L 266.3125 313.4375 L 264.5625 313.4375 L 264.5625 312.03125 z M 261.875 313.34375 L 260.09375 314.21875 L 260.96875 316.03125 L 262.75 315.15625 L 261.875 313.34375 z M 351.3125 313.34375 L 350.4375 315.15625 L 352.25 316.03125 L 353.125 314.21875 L 351.3125 313.34375 z M 276.15625 313.4375 L 276.15625 314 L 278.15625 314 L 278.15625 313.4375 L 276.15625 313.4375 z M 258.28125 315.09375 L 256.5 315.96875 L 257.375 317.78125 L 259.15625 316.90625 L 258.28125 315.09375 z M 354.90625 315.09375 L 354.03125 316.90625 L 355.84375 317.78125 L 356.71875 315.96875 L 354.90625 315.09375 z M 276.15625 316 L 276.15625 318 L 278.15625 318 L 278.15625 316 L 276.15625 316 z M 254.6875 316.84375 L 252.90625 317.71875 L 253.78125 319.53125 L 255.5625 318.65625 L 254.6875 316.84375 z M 358.53125 316.84375 L 357.65625 318.65625 L 359.4375 319.53125 L 360.3125 317.71875 L 358.53125 316.84375 z M 251.09375 318.59375 L 249.3125 319.46875 L 250.1875 321.28125 L 251.96875 320.40625 L 251.09375 318.59375 z M 362.125 318.59375 L 361.25 320.40625 L 363.03125 321.28125 L 363.90625 319.46875 L 362.125 318.59375 z M 276.15625 320 L 276.15625 322 L 278.15625 322 L 278.15625 320 L 276.15625 320 z M 336.15625 320 L 336.15625 322 L 338.15625 322 L 338.15625 320 L 336.15625 320 z M 247.5 320.34375 L 245.6875 321.21875 L 246.5625 323.03125 L 248.375 322.15625 L 247.5 320.34375 z M 365.71875 320.34375 L 364.84375 322.15625 L 366.625 323.03125 L 367.5 321.21875 L 365.71875 320.34375 z M 243.90625 322.09375 L 242.09375 322.96875 L 242.96875 324.78125 L 244.78125 323.90625 L 243.90625 322.09375 z M 369.3125 322.09375 L 368.4375 323.90625 L 370.21875 324.78125 L 371.09375 322.96875 L 369.3125 322.09375 z M 240.3125 323.84375 L 238.5 324.71875 L 239.375 326.53125 L 241.1875 325.65625 L 240.3125 323.84375 z M 372.90625 323.84375 L 372.03125 325.65625 L 373.84375 326.53125 L 374.71875 324.71875 L 372.90625 323.84375 z M 276.15625 324 L 276.15625 326 L 278.15625 326 L 278.15625 324 L 276.15625 324 z M 336.15625 324 L 336.15625 326 L 338.15625 326 L 338.15625 324 L 336.15625 324 z M 236.71875 325.59375 L 234.90625 326.46875 L 235.78125 328.28125 L 237.59375 327.40625 L 236.71875 325.59375 z M 376.5 325.59375 L 375.625 327.40625 L 377.4375 328.28125 L 378.3125 326.46875 L 376.5 325.59375 z M 233.125 327.34375 L 231.3125 328.21875 L 232.1875 330.03125 L 234 329.15625 L 233.125 327.34375 z M 380.09375 327.34375 L 379.21875 329.15625 L 381.03125 330.03125 L 381.90625 328.21875 L 380.09375 327.34375 z M 276.15625 328 L 276.15625 330 L 278.15625 330 L 278.15625 328 L 276.15625 328 z M 336.15625 328 L 336.15625 330 L 338.15625 330 L 338.15625 328 L 336.15625 328 z M 383.6875 329.09375 L 382.8125 330.90625 L 384.5625 331.75 L 384.5625 329.53125 L 383.6875 329.09375 z M 229.71875 329.5 L 229.71875 331.21875 L 230.375 330.90625 L 229.71875 329.5 z M 276.15625 332 L 276.15625 334 L 278.15625 334 L 278.15625 332 L 276.15625 332 z M 336.15625 332 L 336.15625 334 L 338.15625 334 L 338.15625 332 L 336.15625 332 z M 276.15625 336 L 276.15625 338 L 278.15625 338 L 278.15625 336 L 276.15625 336 z M 336.15625 336 L 336.15625 338 L 338.15625 338 L 338.15625 336 L 336.15625 336 z M 276.15625 340 L 276.15625 342 L 278.15625 342 L 278.15625 340 L 276.15625 340 z M 336.15625 340 L 336.15625 342 L 338.15625 342 L 338.15625 340 L 336.15625 340 z M 276.15625 344 L 276.15625 346 L 278.15625 346 L 278.15625 344 L 276.15625 344 z M 336.15625 344 L 336.15625 346 L 338.15625 346 L 338.15625 344 L 336.15625 344 z M 276.15625 348 L 276.15625 349.6875 L 278.15625 349.6875 L 278.15625 348 L 276.15625 348 z M 336.15625 348 L 336.15625 349.6875 L 338.15625 349.6875 L 338.15625 348 L 336.15625 348 z "
       id="path4062" />
    <rect
       style="fill:#cccccc;fill-opacity:1;fill-rule:nonzero;stroke:#000000;stroke-width:0.99956501"
       id="rect3070"
       width="86.227127"
       height="50.714119"
       x="264.0293"
       y="108.926" />
    <rect
       y="223.07646"
       x="267.14285"
       height="8"
       width="20"
       id="rect2989"
       style="fill:#000000;fill-opacity:1;fill-rule:nonzero;stroke:none" />
    <rect
       style="fill:#000000;fill-opacity:1;fill-rule:nonzero;stroke:none"
       id="rect2993"
       width="20"
       height="8"
       x="267.14285"
       y="303.07648" />
    <rect
       y="383.07648"
       x="267.14285"
       height="8"
       width="20"
       id="rect2997"
       style="fill:#000000;fill-opacity:1;fill-rule:nonzero;stroke:none" />
    <text
       xml:space="preserve"
       style="font-size:28px;font-style:normal;font-variant:normal;font-weight:normal;font-stretch:normal;text-align:center;line-height:125%;letter-spacing:0px;word-spacing:0px;writing-mode:lr-tb;text-anchor:middle;fill:#000000;fill-opacity:1;stroke:none;font-family:Serif;-inkscape-font-specification:Serif"
       x="277.15652"
       y="133.07646"
       id="text3001"
       sodipodi:linespacing="125%"><tspan
         sodipodi:role="line"
         id="tspan3003"
         x="277.15652"
         y="133.07646">T</tspan></text>
    <text
       sodipodi:linespacing="125%"
       id="text3005"
       y="213.07646"
       x="277.15652"
       style="font-size:28px;font-style:normal;font-variant:normal;font-weight:normal;font-stretch:normal;text-align:center;line-height:125%;letter-spacing:0px;word-spacing:0px;writing-mode:lr-tb;text-anchor:middle;fill:#000000;fill-opacity:1;stroke:none;font-family:Serif;-inkscape-font-specification:Serif"
       xml:space="preserve"><tspan
         y="213.07646"
         x="277.15652"
         id="tspan3007"
         sodipodi:role="line">M</tspan></text>
    <text
       xml:space="preserve"
       style="font-size:28px;font-style:normal;font-variant:normal;font-weight:normal;font-stretch:normal;text-align:center;line-height:125%;letter-spacing:0px;word-spacing:0px;writing-mode:lr-tb;text-anchor:middle;fill:#000000;fill-opacity:1;stroke:none;font-family:Serif;-inkscape-font-specification:Serif"
       x="277.15652"
       y="293.07648"
       id="text3009"
       sodipodi:linespacing="125%"><tspan
         sodipodi:role="line"
         id="tspan3011"
         x="277.15652"
         y="293.07648">O</tspan></text>
    <text
       sodipodi:linespacing="125%"
       id="text3013"
       y="373.07648"
       x="277.15652"
       style="font-size:28px;font-style:normal;font-variant:normal;font-weight:normal;font-stretch:normal;text-align:center;line-height:125%;letter-spacing:0px;word-spacing:0px;writing-mode:lr-tb;text-anchor:middle;fill:#000000;fill-opacity:1;stroke:none;font-family:Serif;-inkscape-font-specification:Serif"
       xml:space="preserve"><tspan
         y="373.07648"
         x="277.15652"
         id="tspan3015"
         sodipodi:role="line">CH</tspan></text>
    <rect
       style="fill:#000000;fill-opacity:1;fill-rule:nonzero;stroke:none"
       id="rect2985"
       width="20"
       height="8"
       x="267.14285"
       y="143.07646" />
    <path
       sodipodi:type="arc"
       style="fill:#000000;fill-opacity:1;fill-rule:nonzero;stroke:none"
       id="path2987"
       sodipodi:cx="108.21429"
       sodipodi:cy="219.1479"
       sodipodi:rx="7.5"
       sodipodi:ry="7.5"
       d="m 115.71429,219.1479 a 7.5,7.5 0 1 1 -15,0 7.5,7.5 0 1 1 15,0 z"
       transform="matrix(1.3333333,0,0,1.3333333,192.85713,-145.12074)" />
    <path
       transform="matrix(1.3333333,0,0,1.3333333,192.85713,-65.12074)"
       d="m 115.71429,219.1479 a 7.5,7.5 0 1 1 -15,0 7.5,7.5 0 1 1 15,0 z"
       sodipodi:ry="7.5"
       sodipodi:rx="7.5"
       sodipodi:cy="219.1479"
       sodipodi:cx="108.21429"
       id="path2991"
       style="fill:#000000;fill-opacity:1;fill-rule:nonzero;stroke:none"
       sodipodi:type="arc" />
    <path
       sodipodi:type="arc"
       style="fill:#000000;fill-opacity:1;fill-rule:nonzero;stroke:none"
       id="path2995"
       sodipodi:cx="108.21429"
       sodipodi:cy="219.1479"
       sodipodi:rx="7.5"
       sodipodi:ry="7.5"
       d="m 115.71429,219.1479 a 7.5,7.5 0 1 1 -15,0 7.5,7.5 0 1 1 15,0 z"
       transform="matrix(1.3333333,0,0,1.3333333,192.85713,14.87926)" />
    <path
       transform="matrix(1.3333333,0,0,1.3333333,192.85713,94.87926)"
       d="m 115.71429,219.1479 a 7.5,7.5 0 1 1 -15,0 7.5,7.5 0 1 1 15,0 z"
       sodipodi:ry="7.5"
       sodipodi:rx="7.5"
       sodipodi:cy="219.1479"
       sodipodi:cx="108.21429"
       id="path2999"
       style="fill:#000000;fill-opacity:1;fill-rule:nonzero;stroke:none"
       sodipodi:type="arc" />
    <text
       xml:space="preserve"
       style="font-size:28px;font-style:normal;font-variant:normal;font-weight:normal;font-stretch:normal;text-align:center;line-height:125%;letter-spacing:0px;word-spacing:0px;writing-mode:lr-tb;text-anchor:middle;fill:#000000;fill-opacity:1;stroke:none;font-family:Serif;-inkscape-font-specification:Serif"
       x="337.15652"
       y="373.07648"
       id="text3017"
       sodipodi:linespacing="125%"><tspan
         sodipodi:role="line"
         id="tspan3019"
         x="337.15652"
         y="373.07648">H</tspan></text>
    <text
       sodipodi:linespacing="125%"
       id="text3021"
       y="293.07648"
       x="337.15652"
       style="font-size:28px;font-style:normal;font-variant:normal;font-weight:normal;font-stretch:normal;text-align:center;line-height:125%;letter-spacing:0px;word-spacing:0px;writing-mode:lr-tb;text-anchor:middle;fill:#000000;fill-opacity:1;stroke:none;font-family:Serif;-inkscape-font-specification:Serif"
       xml:space="preserve"><tspan
         y="293.07648"
         x="337.15652"
         id="tspan3023"
         sodipodi:role="line">S</tspan></text>
    <text
       xml:space="preserve"
       style="font-size:28px;font-style:normal;font-variant:normal;font-weight:normal;font-stretch:normal;text-align:center;line-height:125%;letter-spacing:0px;word-spacing:0px;writing-mode:lr-tb;text-anchor:middle;fill:#000000;fill-opacity:1;stroke:none;font-family:Serif;-inkscape-font-specification:Serif"
       x="337.15652"
       y="213.07648"
       id="text3025"
       sodipodi:linespacing="125%"><tspan
         sodipodi:role="line"
         id="tspan3027"
         x="337.15652"
         y="213.07648">I</tspan></text>
    <text
       sodipodi:linespacing="125%"
       id="text3029"
       y="133.07648"
       x="337.15652"
       style="font-size:28px;font-style:normal;font-variant:normal;font-weight:normal;font-stretch:normal;text-align:center;line-height:125%;letter-spacing:0px;word-spacing:0px;writing-mode:lr-tb;text-anchor:middle;fill:#000000;fill-opacity:1;stroke:none;font-family:Serif;-inkscape-font-specification:Serif"
       xml:space="preserve"><tspan
         y="133.07648"
         x="337.15652"
         id="tspan3031"
         sodipodi:role="line">E</tspan></text>
    <rect
       style="fill:#000000;fill-opacity:1;fill-rule:nonzero;stroke:none"
       id="rect3846"
       width="20"
       height="8"
       x="387.14285"
       y="143.07646" />
    <text
       xml:space="preserve"
       style="font-size:28px;font-style:normal;font-variant:normal;font-weight:normal;font-stretch:normal;text-align:center;line-height:125%;letter-spacing:0px;word-spacing:0px;writing-mode:lr-tb;text-anchor:middle;fill:#000000;fill-opacity:1;stroke:none;font-family:Serif;-inkscape-font-specification:Serif"
       x="397.15652"
       y="133.07646"
       id="text3848"
       sodipodi:linespacing="125%"><tspan
         sodipodi:role="line"
         id="tspan3850"
         x="397.15652"
         y="133.07646">A</tspan></text>
    <rect
       y="143.07646"
       x="447.14285"
       height="8"
       width="20"
       id="rect3894"
       style="fill:#000000;fill-opacity:1;fill-rule:nonzero;stroke:none" />
    <text
       sodipodi:linespacing="125%"
       id="text3896"
       y="133.07646"
       x="457.15652"
       style="font-size:28px;font-style:normal;font-variant:normal;font-weight:normal;font-stretch:normal;text-align:center;line-height:125%;letter-spacing:0px;word-spacing:0px;writing-mode:lr-tb;text-anchor:middle;fill:#000000;fill-opacity:1;stroke:none;font-family:Serif;-inkscape-font-specification:Serif"
       xml:space="preserve"><tspan
         y="133.07646"
         x="457.15652"
         id="tspan3898"
         sodipodi:role="line">W</tspan></text>
    <rect
       style="fill:#000000;fill-opacity:1;fill-rule:nonzero;stroke:none"
       id="rect3902"
       width="20"
       height="8"
       x="507.14285"
       y="93.076462" />
    <text
       xml:space="preserve"
       style="font-size:28px;font-style:normal;font-variant:normal;font-weight:normal;font-stretch:normal;text-align:center;line-height:125%;letter-spacing:0px;word-spacing:0px;writing-mode:lr-tb;text-anchor:middle;fill:#000000;fill-opacity:1;stroke:none;font-family:Serif;-inkscape-font-specification:Serif"
       x="517.15649"
       y="83.076462"
       id="text3904"
       sodipodi:linespacing="125%"><tspan
         sodipodi:role="line"
         id="tspan3906"
         x="517.15649"
         y="83.076462">J</tspan></text>
    <path
       sodipodi:type="arc"
       style="fill:#000000;fill-opacity:1;fill-rule:nonzero;stroke:none"
       id="path3910"
       sodipodi:cx="108.21429"
       sodipodi:cy="219.1479"
       sodipodi:rx="7.5"
       sodipodi:ry="7.5"
       d="m 115.71429,219.1479 a 7.5,7.5 0 1 1 -15,0 7.5,7.5 0 1 1 15,0 z"
       transform="matrix(1.3333333,0,0,1.3333333,312.85713,-95.12074)" />
    <text
       sodipodi:linespacing="125%"
       id="text3912"
       y="183.07648"
       x="457.15652"
       style="font-size:28px;font-style:normal;font-variant:normal;font-weight:normal;font-stretch:normal;text-align:center;line-height:125%;letter-spacing:0px;word-spacing:0px;writing-mode:lr-tb;text-anchor:middle;fill:#000000;fill-opacity:1;stroke:none;font-family:Serif;-inkscape-font-specification:Serif"
       xml:space="preserve"><tspan
         y="183.07648"
         x="457.15652"
         id="tspan3914"
         sodipodi:role="line">R</tspan></text>
    <rect
       y="193.07646"
       x="507.14285"
       height="8"
       width="20"
       id="rect3926"
       style="fill:#000000;fill-opacity:1;fill-rule:nonzero;stroke:none" />
    <text
       sodipodi:linespacing="125%"
       id="text3928"
       y="183.07646"
       x="517.15649"
       style="font-size:28px;font-style:normal;font-variant:normal;font-weight:normal;font-stretch:normal;text-align:center;line-height:125%;letter-spacing:0px;word-spacing:0px;writing-mode:lr-tb;text-anchor:middle;fill:#000000;fill-opacity:1;stroke:none;font-family:Serif;-inkscape-font-specification:Serif"
       xml:space="preserve"><tspan
         y="183.07646"
         x="517.15649"
         id="tspan3930"
         sodipodi:role="line">Ä</tspan></text>
    <path
       transform="matrix(1.3333333,0,0,1.3333333,372.85713,-45.12074)"
       d="m 115.71429,219.1479 a 7.5,7.5 0 1 1 -15,0 7.5,7.5 0 1 1 15,0 z"
       sodipodi:ry="7.5"
       sodipodi:rx="7.5"
       sodipodi:cy="219.1479"
       sodipodi:cx="108.21429"
       id="path3934"
       style="fill:#000000;fill-opacity:1;fill-rule:nonzero;stroke:none"
       sodipodi:type="arc" />
    <text
       xml:space="preserve"
       style="font-size:28px;font-style:normal;font-variant:normal;font-weight:normal;font-stretch:normal;text-align:center;line-height:125%;letter-spacing:0px;word-spacing:0px;writing-mode:lr-tb;text-anchor:middle;fill:#000000;fill-opacity:1;stroke:none;font-family:Serif;-inkscape-font-specification:Serif"
       x="517.15649"
       y="233.07648"
       id="text3936"
       sodipodi:linespacing="125%"><tspan
         sodipodi:role="line"
         id="tspan3938"
         x="517.15649"
         y="233.07648">L</tspan></text>
    <path
       sodipodi:type="arc"
       style="fill:#000000;fill-opacity:1;fill-rule:nonzero;stroke:none"
       id="path3942"
       sodipodi:cx="108.21429"
       sodipodi:cy="219.1479"
       sodipodi:rx="7.5"
       sodipodi:ry="7.5"
       d="m 115.71429,219.1479 a 7.5,7.5 0 1 1 -15,0 7.5,7.5 0 1 1 15,0 z"
       transform="matrix(1.3333333,0,0,1.3333333,72.85713,-145.12074)" />
    <text
       sodipodi:linespacing="125%"
       id="text3944"
       y="133.07648"
       x="217.15652"
       style="font-size:28px;font-style:normal;font-variant:normal;font-weight:normal;font-stretch:normal;text-align:center;line-height:125%;letter-spacing:0px;word-spacing:0px;writing-mode:lr-tb;text-anchor:middle;fill:#000000;fill-opacity:1;stroke:none;font-family:Serif;-inkscape-font-specification:Serif"
       xml:space="preserve"><tspan
         y="133.07648"
         x="217.15652"
         id="tspan3946"
         sodipodi:role="line">N</tspan></text>
    <path
       transform="matrix(1.3333333,0,0,1.3333333,12.85713,-145.12074)"
       d="m 115.71429,219.1479 a 7.5,7.5 0 1 1 -15,0 7.5,7.5 0 1 1 15,0 z"
       sodipodi:ry="7.5"
       sodipodi:rx="7.5"
       sodipodi:cy="219.1479"
       sodipodi:cx="108.21429"
       id="path3950"
       style="fill:#000000;fill-opacity:1;fill-rule:nonzero;stroke:none"
       sodipodi:type="arc" />
    <text
       xml:space="preserve"
       style="font-size:28px;font-style:normal;font-variant:normal;font-weight:normal;font-stretch:normal;text-align:center;line-height:125%;letter-spacing:0px;word-spacing:0px;writing-mode:lr-tb;text-anchor:middle;fill:#000000;fill-opacity:1;stroke:none;font-family:Serif;-inkscape-font-specification:Serif"
       x="157.15652"
       y="133.07648"
       id="text3952"
       sodipodi:linespacing="125%"><tspan
         sodipodi:role="line"
         id="tspan3954"
         x="157.15652"
         y="133.07648">D</tspan></text>
    <path
       sodipodi:type="arc"
       style="fill:#000000;fill-opacity:1;fill-rule:nonzero;stroke:none"
       id="path3958"
       sodipodi:cx="108.21429"
       sodipodi:cy="219.1479"
       sodipodi:rx="7.5"
       sodipodi:ry="7.5"
       d="m 115.71429,219.1479 a 7.5,7.5 0 1 1 -15,0 7.5,7.5 0 1 1 15,0 z"
       transform="matrix(1.3333333,0,0,1.3333333,-47.14287,-195.12074)" />
    <text
       sodipodi:linespacing="125%"
       id="text3960"
       y="83.076477"
       x="97.156517"
       style="font-size:28px;font-style:normal;font-variant:normal;font-weight:normal;font-stretch:normal;text-align:center;line-height:125%;letter-spacing:0px;word-spacing:0px;writing-mode:lr-tb;text-anchor:middle;fill:#000000;fill-opacity:1;stroke:none;font-family:Serif;-inkscape-font-specification:Serif"
       xml:space="preserve"><tspan
         y="83.076477"
         x="97.156517"
         id="tspan3962"
         sodipodi:role="line">B</tspan></text>
    <rect
       style="fill:#000000;fill-opacity:1;fill-rule:nonzero;stroke:none"
       id="rect3966"
       width="20"
       height="8"
       x="147.14285"
       y="193.07646" />
    <text
       xml:space="preserve"
       style="font-size:28px;font-style:normal;font-variant:normal;font-weight:normal;font-stretch:normal;text-align:center;line-height:125%;letter-spacing:0px;word-spacing:0px;writing-mode:lr-tb;text-anchor:middle;fill:#000000;fill-opacity:1;stroke:none;font-family:Serif;-inkscape-font-specification:Serif"
       x="157.15652"
       y="183.07646"
       id="text3968"
       sodipodi:linespacing="125%"><tspan
         sodipodi:role="line"
         id="tspan3970"
         x="157.15652"
         y="183.07646">K</tspan></text>
    <path
       transform="matrix(1.3333333,0,0,1.3333333,-47.14287,-95.12074)"
       d="m 115.71429,219.1479 a 7.5,7.5 0 1 1 -15,0 7.5,7.5 0 1 1 15,0 z"
       sodipodi:ry="7.5"
       sodipodi:rx="7.5"
       sodipodi:cy="219.1479"
       sodipodi:cx="108.21429"
       id="path3974"
       style="fill:#000000;fill-opacity:1;fill-rule:nonzero;stroke:none"
       sodipodi:type="arc" />
    <text
       xml:space="preserve"
       style="font-size:28px;font-style:normal;font-variant:normal;font-weight:normal;font-stretch:normal;text-align:center;line-height:125%;letter-spacing:0px;word-spacing:0px;writing-mode:lr-tb;text-anchor:middle;fill:#000000;fill-opacity:1;stroke:none;font-family:Serif;-inkscape-font-specification:Serif"
       x="97.156517"
       y="183.07648"
       id="text3976"
       sodipodi:linespacing="125%"><tspan
         sodipodi:role="line"
         id="tspan3978"
         x="97.156517"
         y="183.07648">C</tspan></text>
    <rect
       y="243.07646"
       x="87.142853"
       height="8"
       width="20"
       id="rect3982"
       style="fill:#000000;fill-opacity:1;fill-rule:nonzero;stroke:none" />
    <text
       sodipodi:linespacing="125%"
       id="text3984"
       y="233.07646"
       x="97.156517"
       style="font-size:28px;font-style:normal;font-variant:normal;font-weight:normal;font-stretch:normal;text-align:center;line-height:125%;letter-spacing:0px;word-spacing:0px;writing-mode:lr-tb;text-anchor:middle;fill:#000000;fill-opacity:1;stroke:none;font-family:Serif;-inkscape-font-specification:Serif"
       xml:space="preserve"><tspan
         y="233.07646"
         x="97.156517"
         id="tspan3986"
         sodipodi:role="line">Y</tspan></text>
    <rect
       y="253.07646"
       x="387.14285"
       height="8"
       width="20"
       id="rect4002"
       style="fill:#000000;fill-opacity:1;fill-rule:nonzero;stroke:none" />
    <text
       sodipodi:linespacing="125%"
       id="text4004"
       y="243.07646"
       x="397.15652"
       style="font-size:28px;font-style:normal;font-variant:normal;font-weight:normal;font-stretch:normal;text-align:center;line-height:125%;letter-spacing:0px;word-spacing:0px;writing-mode:lr-tb;text-anchor:middle;fill:#000000;fill-opacity:1;stroke:none;font-family:Serif;-inkscape-font-specification:Serif"
       xml:space="preserve"><tspan
         y="243.07646"
         x="397.15652"
         id="tspan4006"
         sodipodi:role="line">U</tspan></text>
    <rect
       style="fill:#000000;fill-opacity:1;fill-rule:nonzero;stroke:none"
       id="rect4010"
       width="20"
       height="8"
       x="447.14285"
       y="253.07648" />
    <text
       xml:space="preserve"
       style="font-size:28px;font-style:normal;font-variant:normal;font-weight:normal;font-stretch:normal;text-align:center;line-height:125%;letter-spacing:0px;word-spacing:0px;writing-mode:lr-tb;text-anchor:middle;fill:#000000;fill-opacity:1;stroke:none;font-family:Serif;-inkscape-font-specification:Serif"
       x="457.15652"
       y="243.07646"
       id="text4012"
       sodipodi:linespacing="125%"><tspan
         sodipodi:role="line"
         id="tspan4014"
         x="457.15652"
         y="243.07646">Ü</tspan></text>
    <path
       sodipodi:type="arc"
       style="fill:#000000;fill-opacity:1;fill-rule:nonzero;stroke:none"
       id="path4026"
       sodipodi:cx="108.21429"
       sodipodi:cy="219.1479"
       sodipodi:rx="7.5"
       sodipodi:ry="7.5"
       d="m 115.71429,219.1479 a 7.5,7.5 0 1 1 -15,0 7.5,7.5 0 1 1 15,0 z"
       transform="matrix(1.3333333,0,0,1.3333333,312.85713,14.87926)" />
    <text
       sodipodi:linespacing="125%"
       id="text4028"
       y="293.07648"
       x="457.15649"
       style="font-size:28px;font-style:normal;font-variant:normal;font-weight:normal;font-stretch:normal;text-align:center;line-height:125%;letter-spacing:0px;word-spacing:0px;writing-mode:lr-tb;text-anchor:middle;fill:#000000;fill-opacity:1;stroke:none;font-family:Serif;-inkscape-font-specification:Serif"
       xml:space="preserve"><tspan
         y="293.07648"
         x="457.15649"
         id="tspan4030"
         sodipodi:role="line">F</tspan></text>
    <path
       sodipodi:type="arc"
       style="fill:#000000;fill-opacity:1;fill-rule:nonzero;stroke:none"
       id="path4034"
       sodipodi:cx="108.21429"
       sodipodi:cy="219.1479"
       sodipodi:rx="7.5"
       sodipodi:ry="7.5"
       d="m 115.71429,219.1479 a 7.5,7.5 0 1 1 -15,0 7.5,7.5 0 1 1 15,0 z"
       transform="matrix(1.3333333,0,0,1.3333333,72.85713,-35.12074)" />
    <text
       sodipodi:linespacing="125%"
       id="text4036"
       y="243.07648"
       x="217.15652"
       style="font-size:28px;font-style:normal;font-variant:normal;font-weight:normal;font-stretch:normal;text-align:center;line-height:125%;letter-spacing:0px;word-spacing:0px;writing-mode:lr-tb;text-anchor:middle;fill:#000000;fill-opacity:1;stroke:none;font-family:Serif;-inkscape-font-specification:Serif"
       xml:space="preserve"><tspan
         y="243.07648"
         x="217.15652"
         id="tspan4038"
         sodipodi:role="line">G</tspan></text>
    <path
       transform="matrix(1.3333333,0,0,1.3333333,12.85713,-35.12074)"
       d="m 115.71429,219.1479 a 7.5,7.5 0 1 1 -15,0 7.5,7.5 0 1 1 15,0 z"
       sodipodi:ry="7.5"
       sodipodi:rx="7.5"
       sodipodi:cy="219.1479"
       sodipodi:cx="108.21429"
       id="path4042"
       style="fill:#000000;fill-opacity:1;fill-rule:nonzero;stroke:none"
       sodipodi:type="arc" />
    <text
       xml:space="preserve"
       style="font-size:28px;font-style:normal;font-variant:normal;font-weight:normal;font-stretch:normal;text-align:center;line-height:125%;letter-spacing:0px;word-spacing:0px;writing-mode:lr-tb;text-anchor:middle;fill:#000000;fill-opacity:1;stroke:none;font-family:Serif;-inkscape-font-specification:Serif"
       x="157.15652"
       y="243.07648"
       id="text4044"
       sodipodi:linespacing="125%"><tspan
         sodipodi:role="line"
         id="tspan4046"
         x="157.15652"
         y="243.07648">Z</tspan></text>
    <rect
       style="fill:#000000;fill-opacity:1;fill-rule:nonzero;stroke:none"
       id="rect4050"
       width="20"
       height="8"
       x="147.14285"
       y="303.07648" />
    <text
       xml:space="preserve"
       style="font-size:28px;font-style:normal;font-variant:normal;font-weight:normal;font-stretch:normal;text-align:center;line-height:125%;letter-spacing:0px;word-spacing:0px;writing-mode:lr-tb;text-anchor:middle;fill:#000000;fill-opacity:1;stroke:none;font-family:Serif;-inkscape-font-specification:Serif"
       x="157.15652"
       y="293.07648"
       id="text4052"
       sodipodi:linespacing="125%"><tspan
         sodipodi:role="line"
         id="tspan4054"
         x="157.15652"
         y="293.07648">Q</tspan></text>
    <rect
       style="fill:#000000;fill-opacity:1;fill-rule:nonzero;stroke:none"
       id="rect4070"
       width="20"
       height="8"
       x="387.14285"
       y="333.07648" />
    <text
       xml:space="preserve"
       style="font-size:28px;font-style:normal;font-variant:normal;font-weight:normal;font-stretch:normal;text-align:center;line-height:125%;letter-spacing:0px;word-spacing:0px;writing-mode:lr-tb;text-anchor:middle;fill:#000000;fill-opacity:1;stroke:none;font-family:Serif;-inkscape-font-specification:Serif"
       x="397.15652"
       y="323.07648"
       id="text4072"
       sodipodi:linespacing="125%"><tspan
         sodipodi:role="line"
         id="tspan4074"
         x="397.15652"
         y="323.07648">V</tspan></text>
    <path
       transform="matrix(1.3333333,0,0,1.3333333,72.85713,44.87926)"
       d="m 115.71429,219.1479 a 7.5,7.5 0 1 1 -15,0 7.5,7.5 0 1 1 15,0 z"
       sodipodi:ry="7.5"
       sodipodi:rx="7.5"
       sodipodi:cy="219.1479"
       sodipodi:cx="108.21429"
       id="path4078"
       style="fill:#000000;fill-opacity:1;fill-rule:nonzero;stroke:none"
       sodipodi:type="arc" />
    <text
       xml:space="preserve"
       style="font-size:28px;font-style:normal;font-variant:normal;font-weight:normal;font-stretch:normal;text-align:center;line-height:125%;letter-spacing:0px;word-spacing:0px;writing-mode:lr-tb;text-anchor:middle;fill:#000000;fill-opacity:1;stroke:none;font-family:Serif;-inkscape-font-specification:Serif"
       x="217.15652"
       y="323.07648"
       id="text4080"
       sodipodi:linespacing="125%"><tspan
         sodipodi:role="line"
         id="tspan4082"
         x="217.15652"
         y="323.07648">Ö</tspan></text>
    <path
       sodipodi:type="arc"
       style="fill:#000000;fill-opacity:1;fill-rule:nonzero;stroke:none"
       id="path3087"
       sodipodi:cx="108.21429"
       sodipodi:cy="219.1479"
       sodipodi:rx="7.5"
       sodipodi:ry="7.5"
       d="m 115.71429,219.1479 a 7.5,7.5 0 1 1 -15,0 7.5,7.5 0 1 1 15,0 z"
       transform="matrix(1.3333333,0,0,1.3333333,372.85713,-145.12074)" />
    <text
       sodipodi:linespacing="125%"
       id="text3089"
       y="133.07648"
       x="517.15649"
       style="font-size:28px;font-style:normal;font-variant:normal;font-weight:normal;font-stretch:normal;text-align:center;line-height:125%;letter-spacing:0px;word-spacing:0px;writing-mode:lr-tb;text-anchor:middle;fill:#000000;fill-opacity:1;stroke:none;font-family:Serif;-inkscape-font-specification:Serif"
       xml:space="preserve"><tspan
         y="133.07648"
         x="517.15649"
         id="tspan3091"
         sodipodi:role="line">P</tspan></text>
    <rect
       style="fill:#000000;fill-opacity:1;fill-rule:nonzero;stroke:none"
       id="rect3093"
       width="20"
       height="8"
       x="87.142853"
       y="143.07646" />
    <text
       xml:space="preserve"
       style="font-size:28px;font-style:normal;font-variant:normal;font-weight:normal;font-stretch:normal;text-align:center;line-height:125%;letter-spacing:0px;word-spacing:0px;writing-mode:lr-tb;text-anchor:middle;fill:#000000;fill-opacity:1;stroke:none;font-family:Serif;-inkscape-font-specification:Serif"
       x="97.156517"
       y="133.07646"
       id="text3095"
       sodipodi:linespacing="125%"><tspan
         sodipodi:role="line"
         id="tspan3097"
         x="97.156517"
         y="133.07646">X</tspan></text>
    <path
       style="fill:none;stroke:#000000;stroke-width:2;stroke-linecap:butt;stroke-linejoin:round;stroke-miterlimit:4;stroke-opacity:1;stroke-dasharray:2, 2;stroke-dashoffset:0"
       d="M 144.46429,135.04075 108.92857,103.96932"
       id="path3099"
       inkscape:connector-curvature="0" />
    <path
       inkscape:connector-curvature="0"
       id="path3869"
       d="m 468.92857,135.04075 35.53572,-31.07143"
       style="fill:none;stroke:#000000;stroke-width:2;stroke-linecap:butt;stroke-linejoin:round;stroke-miterlimit:4;stroke-opacity:1;stroke-dasharray:2, 2;stroke-dashoffset:0" />
  </g>
</svg>
